<?xml version="1.0" encoding="UTF-8"?>
<svg id="Layer_1" data-name="Layer 1" xmlns="http://www.w3.org/2000/svg" viewBox="0 0 2079.67 213.97">
  <defs>
    <style>
      .cls-1 {
        fill: #98d3c1;
      }

      .cls-1, .cls-2, .cls-3 {
        stroke-width: 0px;
      }

      .cls-2 {
        fill: #205781;
      }

      .cls-3 {
        fill: #4f959d;
      }
    </style>
  </defs>
  <g id="_360" data-name="360">
    <g>
      <path class="cls-1" d="M1716.79,69.65c.28,3.27.55,6.36.84,9.66-2.5.96-5.07,1.93-7.63,2.92-11.65,4.53-23.01,9.68-33.47,16.58-6.07,4-11.78,8.46-15.93,14.57-2.83,4.17-4.49,8.66-3.45,13.8.92,4.53,3.61,7.97,6.99,10.92,6.11,5.33,13.35,8.65,20.87,11.4,17.15,6.27,35,9.4,53.06,11.4,10.93,1.21,21.92,2.06,32.9,2.57,11.9.54,23.82.7,35.73.64,9.56-.04,19.12-.54,28.67-1.04,8.87-.46,17.73-1.18,26.59-1.81,1.36-.1,2.7-.37,4.22-.59-.93-10.65-1.85-21.25-2.76-31.77,15.43,12.99,30.81,25.94,46.24,38.95-12.65,15.04-25.62,30.47-38.79,46.13-.89-10.17-1.75-20.14-2.63-30.19-.71.03-1.22.03-1.73.07-9.23.69-18.45,1.57-27.69,2.04-10.43.53-20.89.84-31.33.99-9.29.13-18.59.2-27.87-.22-12.09-.54-24.18-1.42-36.24-2.44-16.73-1.41-33.27-4.11-49.6-8.06-13.58-3.29-26.87-7.48-39.27-14.08-6.71-3.58-12.99-7.78-17.91-13.7-7.98-9.63-8.61-20.45-1.91-31,4.5-7.08,10.6-12.57,17.3-17.47,12.06-8.81,25.34-15.39,39.13-20.94,8.06-3.24,16.3-6.03,24.47-9.02.34-.12.7-.18,1.2-.3Z"/>
      <path class="cls-1" d="M1928.74,175.03c-.66-7.56-1.31-15.04-1.97-22.69,2.16-.44,4.36-.86,6.54-1.35,9.67-2.18,19.41-4.11,28.98-6.66,10.62-2.83,21.17-5.98,31.59-9.47,13.54-4.53,26.65-10.13,38.73-17.88,5.32-3.41,10.33-7.23,14.28-12.25,2.74-3.48,4.78-7.24,4.97-11.82.18-4.41-1.55-8.08-4.25-11.35-4.2-5.09-9.7-8.47-15.53-11.34-11.67-5.74-24.11-9.13-36.76-11.82-1.28-.27-1.84-.7-1.89-2.08-.1-2.68-.41-5.35-.62-8.02,0-.09.08-.18.22-.48,4.92.95,9.9,1.84,14.86,2.89,13.31,2.8,26.37,6.43,38.88,11.84,8.03,3.47,15.7,7.58,22.25,13.49,4.39,3.95,8,8.47,9.71,14.24,1.91,6.48.89,12.66-2.21,18.55-4.04,7.65-10.16,13.44-16.92,18.62-9.07,6.95-19.03,12.4-29.35,17.24-17.46,8.19-35.64,14.42-54.21,19.51-10.57,2.9-21.26,5.33-31.92,7.86-4.64,1.1-9.36,1.92-14.04,2.85-.4.08-.82.08-1.32.12Z"/>
    </g>
    <g>
      <path class="cls-3" d="M1987.09,55.31c-.04,21.31-6.68,34.99-19.35,45.68-17.2,14.51-41.63,13.45-58.67-2.32-25.02-23.17-21.24-65.47,7.5-83.76,16.9-10.76,39.13-8.31,53.97,5.95,10.99,10.56,16.6,23.82,16.55,34.44ZM1951.14,58.87c-.27-1.06-.49-3.03-1.26-4.75-1.85-4.14-4.73-7.42-9.56-7.73-4.6-.3-7.77,2.34-9.96,6.19-2.4,4.21-2.5,8.65-.66,13,2.83,6.69,9.66,9.43,14.99,6.02,4.24-2.71,6.23-6.85,6.46-12.72Z"/>
      <path class="cls-3" d="M1868.89,8.98c-5.13,9.19-10.09,18.09-14.97,26.82,4.82,2.15,9.49,3.64,13.53,6.13,12.68,7.83,19.66,18.98,18.06,34.36-1.09,10.54-6.79,18.51-14.93,24.89-20.84,16.32-52.89,10.48-66.07-12.07-6.1-10.43-5.3-21.29-1.74-32.3,3.82-11.84,10.94-21.85,17.65-32.09,3.03-4.62,5.99-9.29,9.11-13.85.58-.84,1.77-1.79,2.68-1.8,12.17-.12,24.34-.08,36.67-.08ZM1842.84,82.47c5.29-.04,10.4-5.02,10.48-10.21.08-5.23-5.21-10.57-10.47-10.57-5.27,0-10.5,5.3-10.44,10.59.06,5.27,5.13,10.23,10.43,10.2Z"/>
      <path class="cls-3" d="M1777.3,60.22c16.23,10,11.89,32.35-1.46,42.2-9.93,7.33-21.13,9.7-33.2,8.52-9.08-.89-17.44-3.76-24.45-9.84-1.51-1.31-2.78-2.9-3.76-3.95,6.61-6.95,13.01-13.68,19.42-20.42,4.23,4.24,8.71,7.15,14.63,6.71,3.49-.26,6.25-2.55,6.84-5.5.52-2.57-.76-5.48-3.27-6.74-1.36-.68-2.95-.91-4.68-1.41v-21.26c1.54-.52,3.06-.74,4.25-1.49,2.39-1.5,3.05-3.76,2.19-6.5-.97-3.11-3.33-5.23-6.32-5.29-5.74-.12-10.36,2.18-13.92,6.9-6.33-6.68-12.57-13.27-19.09-20.16,2.41-3.41,6.43-6.6,11.2-8.62,17.42-7.35,34.5-7.44,50.4,3.85,9.75,6.92,13.9,16.68,11.99,28.68-.78,4.88-3.48,8.65-7.26,11.7-1.06.86-2.18,1.63-3.51,2.62Z"/>
    </g>
  </g>
  <g>
    <path class="cls-2" d="M1551.94,132.59h62.23v54.83h-156.01c20.75-40.45,41.33-80.55,62.64-122.1h-61.99V10.34h155.77c-20.72,40.43-41.13,80.26-62.65,122.25Z"/>
    <path class="cls-2" d="M1052.57,100.82c24.99-23.69,25.07-53.22.75-73.82-13.24-11.21-28.93-16.69-46.2-16.88-26.43-.29-52.87-.11-79.3-.12-5.08-.01-10.16,0-15.74,0v178.84c20.5,0,40.51.32,60.49-.09,17.81-.37,35.76-.32,53.35-2.69,21.19-2.86,36-15.3,42.32-36.28,5.84-19.41,1.65-36.07-15.67-48.96ZM977.38,55.46c8.28,1.75,16.42,2.63,23.69,5.61,1.68.68,2.03,11.62.25,12.55-6.92,3.6-14.94,5.06-23.94,7.73v-25.89ZM1004.04,135.73c-6.09,11.06-16.83,5.08-26.74,6.39v-25.56c9.59,2.55,18.18,4.12,26.02,7.46,1.71.73,2.4,8.66.72,11.71Z"/>
    <path class="cls-2" d="M412.76,172.74c-11.31-11.58-19.27-19.73-28.32-28.99v50.49h-60.08V17.73c5.99,4.65,11.15,8.53,16.17,12.57,20.87,16.8,41.9,33.4,62.41,50.62,6.07,5.1,9.88,5.11,16.02.02,25.43-21.1,51.36-41.59,78.63-63.54v176.98h-59.09v-51.17c-9.18,10.54-16.76,19.23-25.73,29.53Z"/>
    <path class="cls-2" d="M1086.97,10.64h58.97c.19,4.05.53,8.02.53,11.99.05,24.59-.14,49.19.09,73.78.2,21.92,12.2,34.49,32.21,34.36,19.67-.13,32.19-13.24,32.44-34.72.28-24.22.07-48.44.08-72.67,0-4.01,0-8.02,0-12.7h56.71c.4.43,1.35.97,1.35,1.51.07,33.89,2.54,68-.5,101.62-4.6,50.9-50.78,83.59-103.11,76.49-47.7-6.48-78.16-40.63-78.7-88.8-.33-30.07-.06-60.15-.06-90.86Z"/>
    <path class="cls-2" d="M1443.28,188.3h-156.98c20.98-40.86,41.43-80.7,62.77-122.26h-62.42V10.82h156.31c-20.78,40.55-41.16,80.3-62.49,121.9h62.8v55.59Z"/>
    <path class="cls-2" d="M148.72,10.89v54.21h-41.28v122.95H41.35v-122.01H0V10.89h148.72Z"/>
    <g>
      <path class="cls-2" d="M215.77,5.33c31.05,61.84,61.12,121.76,92.11,183.48-21.76,0-41.96.19-62.14-.28-2.21-.05-5.09-3.54-6.36-6.08-7.73-15.54-15.09-31.27-23.56-49.03-8.25,17.39-15.38,32.99-23.14,48.28-1.52,3-5.38,6.73-8.27,6.82-19.56.6-39.16.31-60.47.31,30.73-61.41,60.73-121.36,91.83-183.5Z"/>
      <path class="cls-2" d="M229.57,177.55c-6.17,5.24-9.86,10.74-13.06,10.47-3.69-.31-9.28-5.44-9.71-9-.37-3.03,5-8.89,8.61-9.62,3.2-.65,7.48,4.04,14.16,8.14Z"/>
    </g>
    <path class="cls-2" d="M589.06,148.5v40.46h-65.95V6.77c4.29,0,8.35,0,12.41,0,28.18.03,56.38-.35,84.55.18,39.47.75,67.58,30.95,67.3,71.51-.28,39.94-28.32,69.06-67.57,70-9.8.24-19.6.04-30.73.04ZM590.11,61.84v31.83c4.34,0,7.74,0,11.13,0,3.41,0,6.84.14,10.24-.08,9.52-.62,16.03-7.12,16.03-15.8,0-8.64-6.48-15.31-16.08-15.87-6.78-.39-13.6-.08-21.33-.08Z"/>
    <g>
      <g>
        <path class="cls-2" d="M759.81,133.39c-8.25,17.35-15.62,33.45-23.66,49.19-1.44,2.82-5.66,5.89-8.68,5.98-18.95.54-37.93.27-59.47.27,30.72-61.46,60.77-121.56,91.74-183.52,30.87,61.49,61,121.5,92.1,183.46-22.06,0-42.31.2-62.53-.29-2.15-.05-4.87-3.85-6.17-6.48-7.73-15.61-15.12-31.39-23.34-48.61Z"/>
        <path class="cls-2" d="M773.77,178.5c-6.45,4.71-10.49,9.93-13.93,9.56-3.56-.39-8.83-6.08-9.03-9.69-.17-3.03,5.69-8.64,9.26-8.97,3.46-.32,7.4,4.64,13.7,9.1Z"/>
      </g>
      <path class="cls-2" d="M867.26,26.84c-1.65-9.17-11.67-17.15-21.01-16.67-2.49.13-4.95.76-7.3,1.13,2.21-2.08,4.87-3.82,7.81-5.14.89-.4,1.75-.82,1.58-1.98-.16-1.1-1.1-1.29-1.99-1.39-7.7-.83-14.35,1.12-19.38,7.34-.11.13-.26.22-.36.29-5.27-8.06-12.8-11.1-22.13-10.3-.93.08-1.82.23-2,1.33-.19,1.1.68,1.45,1.43,1.96,2.84,1.91,5.73,3.76,8.4,5.89,1.58,1.26,2.79,2.99,4.16,4.51-.62.07-.98-.1-1.34-.28-10.42-5.21-23.94-1.26-29.83,8.76-.39.66-.61,1.73-.35,2.38.45,1.1,1.55.66,2.45.42,5.62-1.53,11.33-2.02,17.11-1.33,2.45.29,4.87.89,7.3,1.36-.02.13-.04.27-.06.4-.16.02-.32.04-.48.06-5.99.6-10.88,3.25-14.58,8-6.54,8.37-6.88,21.47-.77,30.3.35.5,1.26,1.01,1.77.89.51-.11,1.07-.94,1.23-1.56.58-2.19.79-4.5,1.53-6.63,3.36-9.72,9.23-17.38,18.54-22.16,1.56-.8,2.98-1.14,4.6.15-.27,2.14-.48,4.4-.85,6.64-.42,2.56-.86,5.13-1.48,7.65-4.99,20.18-15.45,37.13-30.19,51.57,1.26.38,2.47.81,3.48,1.4,3.23,1.73,7.05.51,10.31,1.87.74.33,1.5.62,2.26.9,15.28-20.93,23.69-44.19,22.89-70.45.62-.28,1.33-.4,1.76-.82.95-.93,1.8-.72,2.84-.21,11.64,5.58,18.4,14.92,21.11,27.37.21.97.28,2.03,1.5,2.22,1.18.18,1.56-.8,2.01-1.61,2.6-4.76,3.88-9.85,3.38-15.27-.8-8.69-4.56-15.61-12.5-19.79-3.58-1.88-7.47-2.43-11.51-2.33.2-.1.39-.22.6-.29,9.42-3.47,17.64-.93,25.22,4.98.53.41,1.65.79,2.02.52.52-.38.93-1.43.81-2.09ZM830.86,29.63c-.21.64-.97,1.1-1.5,1.64-.71-.44-1.14-.64-1.48-.92-.88-.74-1.59-.55-2.46.12-.54.42-1.39.64-2.07.57-.38-.04-1.02-.92-.95-1.3.13-.66.6-1.42,1.16-1.8.91-.61,1.21-1.23.95-2.31-.28-1.15.47-2.1,1.53-2.18,1.04-.08,1.87.76,1.75,1.99-.13,1.34.39,1.96,1.69,2.18,1.06.18,1.7.98,1.37,2.01Z"/>
    </g>
  </g>
</svg>